<?xml version="1.0" encoding="utf-8"?>
<!-- Generator: Adobe Illustrator 19.0.0, SVG Export Plug-In . SVG Version: 6.00 Build 0)  -->
<svg version="1.1" id="layer" xmlns="http://www.w3.org/2000/svg" xmlns:xlink="http://www.w3.org/1999/xlink" x="0px" y="0px"
	 viewBox="-153 -46 652 652" style="enable-background:new -153 -46 652 652;" xml:space="preserve">
<style type="text/css">
	.st0{fill:#1B2B66;}
	.st1{fill:#FFFFFF;}
</style>
<g>
	<g>
		<g>
			<path class="st0" d="M1.5,186.3c0,89.2,72.4,161.6,161.6,161.6s161.6-72.1,161.6-161.6C324.7,97.2,252.3,25,163.1,25
				C73.7,24.8,1.5,97.2,1.5,186.3"/>
		</g>
	</g>
	<g>
		<path class="st0" d="M-97.9,463.7c0-7-1.1-11.9-3.2-15.1c-2.6-3.8-7-5.7-13.4-5.7c-6.4,0-10.9,1.9-13.4,5.7
			c-2.1,3.2-3.2,8.1-3.2,15.1v20.9h16.6c6.4,0,10.9-1.9,13.4-5.7C-98.9,475.6-97.9,470.5-97.9,463.7 M-85.7,463.7
			c0,22.8-9.6,34.3-28.5,34.3h-16.6v27h-11.9v-61.1c0-23,9.6-34.3,28.5-34.3C-95.3,429.4-85.7,440.9-85.7,463.7"/>
		<path class="st0" d="M-32.5,463.7c0-7-1.1-11.9-3-15.1c-2.5-3.8-7-5.7-13.2-5.7c-6.4,0-10.8,1.9-13.4,5.7c-2.1,3.2-3,8.1-3,15.1
			s1.1,12.1,3,15.1c2.5,3.8,7,5.7,13.4,5.7c6.4,0,10.6-1.9,13.2-5.7C-33.6,475.8-32.5,470.7-32.5,463.7 M-25.1,416.4l-5.5,7.2
			l-19.2-10.9l-19.2,10.9l-5.3-7.2l24.5-13.8L-25.1,416.4z M-20.6,463.7c0,22.8-9.6,34.3-28.5,34.3c-18.9,0-28.5-11.5-28.5-34.3
			c0-22.8,9.6-34.3,28.5-34.3C-30,429.4-20.6,440.9-20.6,463.7"/>
		<path class="st0" d="M19.9,497.7c-20.4,0-30.7-8.3-30.7-24.9v-70.6H1.1v70.6c0,3.6,1.1,6.2,3.2,7.9c2.8,2.4,8.1,3.4,15.3,3.4v13.6
			H19.9z"/>
		<path class="st0" d="M291.5,497.7h-11.9v-34.3c0-7-1.1-11.9-3.2-15.1c-2.6-3.8-7-5.8-13.6-5.8c-6.4,0-10.8,1.9-13.4,5.8
			c-2.1,3.2-3,8.1-3,15.1v34.3h-11.9v-34.3c0-7-1.1-11.9-3.2-15.1c-2.6-3.8-7-5.8-13.4-5.8s-10.9,1.9-13.4,5.8
			c-2.1,3.2-3,8.1-3,15.1v34.3h-11.9v-34.3c0-22.8,9.4-34.3,28.3-34.3c10.2,0,17.7,3.4,22.6,10.4c4.9-7,12.3-10.4,22.3-10.4
			c19.2,0,28.5,11.3,28.5,34.3v34.3H291.5z"/>
		<path class="st0" d="M346.2,463.7c0-7-1.1-11.9-3-15.1c-2.6-3.8-7-5.7-13.4-5.7s-10.9,1.9-13.4,5.7c-1.9,3.2-3.2,8.1-3.2,15.1
			v20.9h16.6c6.4,0,10.9-1.9,13.4-5.7C345.1,475.6,346.2,470.5,346.2,463.7 M358.1,463.7c0,22.8-9.6,34.3-28.5,34.3h-16.6v27H301
			v-61.1c0-23,9.6-34.3,28.5-34.3C348.5,429.4,358.1,440.9,358.1,463.7"/>
		<path class="st0" d="M397.4,497.7c-20.4,0-30.7-8.3-30.7-24.9v-70.6h11.9v70.6c0,3.6,1.1,6.2,3.2,7.9c2.8,2.4,7.9,3.4,15.3,3.4
			v13.6H397.4z"/>
		<path class="st0" d="M446,463.7c0-7-1.1-11.9-3.2-15.1c-2.6-3.8-7-5.7-13.4-5.7c-6.4,0-10.8,1.9-13.4,5.7c-2.1,3.2-3,8.1-3,15.1
			s1.1,12.1,3,15.1c2.6,3.8,7,5.7,13.4,5.7c6.4,0,10.8-1.9,13.4-5.7C444.9,475.8,446,470.7,446,463.7 M457.9,463.7
			c0,22.8-9.4,34.3-28.3,34.3c-18.9,0-28.5-11.5-28.5-34.3c0-22.8,9.6-34.3,28.5-34.3S457.9,440.9,457.9,463.7"/>
		<path class="st0" d="M466.8,429.4h11.9v68.3h-11.9V429.4z M478.8,415.8h-11.9v-13.4h11.9V415.8z"/>
		<path class="st0" d="M65.8,449.2c-2.1-5.1-7-8.5-13.4-8.5c-6.4,0-11.3,3.4-13.4,8.5c-1.3,3.2-1.7,5.1-1.7,9.2h30.4
			C67.7,454.3,67.3,452.4,65.8,449.2 M37.3,467.9c0,11.5,6.2,18.9,17.2,18.9c7.7,0,11.7-2.1,16.4-6.8l8.7,8.1
			c-6.8,7-13.4,10.6-25.3,10.6c-17,0-30.4-8.9-30.4-34.7c0-21.9,11.3-34.5,28.7-34.5c18.1,0,28.5,13.2,28.5,32.6v6H37.3L37.3,467.9
			L37.3,467.9z"/>
		<path class="st0" d="M164.4,449.2c-2.1-5.1-6.8-8.5-13.4-8.5c-6.4,0-11.3,3.4-13.4,8.5c-1.3,3.2-1.7,5.1-1.7,9.2h30.4
			C166.1,454.3,165.6,452.4,164.4,449.2 M135.9,467.9c0,11.5,6.2,18.9,17.2,18.9c7.7,0,11.5-2.1,16.4-6.8l8.7,8.1
			c-7,7-13.6,10.6-25.3,10.6c-17,0-30.4-8.9-30.4-34.7c0-21.9,11.3-34.5,28.7-34.5c18.1,0,28.7,13.2,28.7,32.6v6h-44.1
			C135.9,468.2,135.9,467.9,135.9,467.9z"/>
		<path class="st0" d="M-97.9,463.7c0-7-1.1-11.9-3.2-15.1c-2.6-3.8-7-5.7-13.4-5.7c-6.4,0-10.9,1.9-13.4,5.7
			c-2.1,3.2-3.2,8.1-3.2,15.1v20.9h16.6c6.4,0,10.9-1.9,13.4-5.7C-98.9,475.6-97.9,470.5-97.9,463.7 M-85.7,463.7
			c0,22.8-9.6,34.3-28.5,34.3h-16.6v27h-11.9v-61.1c0-23,9.6-34.3,28.5-34.3C-95.3,429.4-85.7,440.9-85.7,463.7"/>
		<path class="st0" d="M-32.5,463.7c0-7-1.1-11.9-3-15.1c-2.5-3.8-7-5.7-13.2-5.7c-6.4,0-10.8,1.9-13.4,5.7c-2.1,3.2-3,8.1-3,15.1
			s1.1,12.1,3,15.1c2.5,3.8,7,5.7,13.4,5.7c6.4,0,10.6-1.9,13.2-5.7C-33.6,475.8-32.5,470.7-32.5,463.7 M-25.1,416.4l-5.5,7.2
			l-19.2-10.9l-19.2,10.9l-5.3-7.2l24.5-13.8L-25.1,416.4z M-20.6,463.7c0,22.8-9.6,34.3-28.5,34.3c-18.9,0-28.5-11.5-28.5-34.3
			c0-22.8,9.6-34.3,28.5-34.3C-30,429.4-20.6,440.9-20.6,463.7"/>
		<path class="st0" d="M19.9,497.7c-20.4,0-30.7-8.3-30.7-24.9v-70.6H1.1v70.6c0,3.6,1.1,6.2,3.2,7.9c2.8,2.4,8.1,3.4,15.3,3.4v13.6
			H19.9z"/>
		<path class="st0" d="M291.5,497.7h-11.9v-34.3c0-7-1.1-11.9-3.2-15.1c-2.6-3.8-7-5.8-13.6-5.8c-6.4,0-10.8,1.9-13.4,5.8
			c-2.1,3.2-3,8.1-3,15.1v34.3h-11.9v-34.3c0-7-1.1-11.9-3.2-15.1c-2.6-3.8-7-5.8-13.4-5.8s-10.9,1.9-13.4,5.8
			c-2.1,3.2-3,8.1-3,15.1v34.3h-11.9v-34.3c0-22.8,9.4-34.3,28.3-34.3c10.2,0,17.7,3.4,22.6,10.4c4.9-7,12.3-10.4,22.3-10.4
			c19.2,0,28.5,11.3,28.5,34.3v34.3H291.5z"/>
		<path class="st0" d="M346.2,463.7c0-7-1.1-11.9-3-15.1c-2.6-3.8-7-5.7-13.4-5.7s-10.9,1.9-13.4,5.7c-1.9,3.2-3.2,8.1-3.2,15.1
			v20.9h16.6c6.4,0,10.9-1.9,13.4-5.7C345.1,475.6,346.2,470.5,346.2,463.7 M358.1,463.7c0,22.8-9.6,34.3-28.5,34.3h-16.6v27H301
			v-61.1c0-23,9.6-34.3,28.5-34.3C348.5,429.4,358.1,440.9,358.1,463.7"/>
		<path class="st0" d="M397.4,497.7c-20.4,0-30.7-8.3-30.7-24.9v-70.6h11.9v70.6c0,3.6,1.1,6.2,3.2,7.9c2.8,2.4,7.9,3.4,15.3,3.4
			v13.6H397.4z"/>
		<path class="st0" d="M446,463.7c0-7-1.1-11.9-3.2-15.1c-2.6-3.8-7-5.7-13.4-5.7c-6.4,0-10.8,1.9-13.4,5.7c-2.1,3.2-3,8.1-3,15.1
			s1.1,12.1,3,15.1c2.6,3.8,7,5.7,13.4,5.7c6.4,0,10.8-1.9,13.4-5.7C444.9,475.8,446,470.7,446,463.7 M457.9,463.7
			c0,22.8-9.4,34.3-28.3,34.3c-18.9,0-28.5-11.5-28.5-34.3c0-22.8,9.6-34.3,28.5-34.3S457.9,440.9,457.9,463.7"/>
		<path class="st0" d="M466.8,429.4h11.9v68.3h-11.9V429.4z M478.8,415.8h-11.9v-13.4h11.9V415.8z"/>
		<path class="st0" d="M65.8,449.2c-2.1-5.1-7-8.5-13.4-8.5c-6.4,0-11.3,3.4-13.4,8.5c-1.3,3.2-1.7,5.1-1.7,9.2h30.4
			C67.7,454.3,67.3,452.4,65.8,449.2 M37.3,467.9c0,11.5,6.2,18.9,17.2,18.9c7.7,0,11.7-2.1,16.4-6.8l8.7,8.1
			c-6.8,7-13.4,10.6-25.3,10.6c-17,0-30.4-8.9-30.4-34.7c0-21.9,11.3-34.5,28.7-34.5c18.1,0,28.5,13.2,28.5,32.6v6H37.3L37.3,467.9
			L37.3,467.9z"/>
		<path class="st0" d="M164.4,449.2c-2.1-5.1-6.8-8.5-13.4-8.5c-6.4,0-11.3,3.4-13.4,8.5c-1.3,3.2-1.7,5.1-1.7,9.2h30.4
			C166.1,454.3,165.6,452.4,164.4,449.2 M135.9,467.9c0,11.5,6.2,18.9,17.2,18.9c7.7,0,11.5-2.1,16.4-6.8l8.7,8.1
			c-7,7-13.6,10.6-25.3,10.6c-17,0-30.4-8.9-30.4-34.7c0-21.9,11.3-34.5,28.7-34.5c18.1,0,28.7,13.2,28.7,32.6v6h-44.1
			C135.9,468.2,135.9,467.9,135.9,467.9z"/>
	</g>
	<g>
		<path class="st0" d="M281.9,125.5c8.9,9.6,14,23.4,15.5,41.1c0.2,3-3,5.5-6.2,5.5h-91.3c-3.2,0-6.6-2.8-6.2-5.9
			c2.1-17.5,7.5-31.1,16.2-40.4c9.2-10,21.3-15.1,35.3-14.9C260.4,110.8,272.7,115.7,281.9,125.5 M218.7,82.7
			c-5.1,1.1-9.8,2.6-14.5,4.5c-13,5.1-23.6,12.3-32.4,21.7c-8.7,9.4-15.5,20.6-20,34c-0.6,2.1-1.5,4.5-2.1,6.6V224
			c4.5,16,12.3,29.4,23.2,40.4c18.5,19.2,44.5,28.7,78.5,28.7c14.5,0,27.5-1.9,38.5-5.5c20.2-7,43-27.5,47-46.4
			c2.5-12.3-5.1-15.1-9.2-15.8c-0.8,0-1.5-0.2-2.4-0.2c-4.7,0-8.5,1.5-10.9,3.8c-2.8,2.5-11.1,10.4-15.3,14
			c-4.5,3.8-9.2,7.4-14.3,10.6c-5.1,3.4-10.6,5.9-16.4,7.7c-5.5,1.5-11.9,2.3-18.5,2.3c-10.2,0-19.6-2.6-28.1-7.7
			c-8.5-5.1-15.3-12.6-20.2-22.3c-4.7-9.1-7.2-19.4-7.7-30.9c-0.2-3.8,2.8-6.2,6.2-6.2h102.4c13.8,0,24.3-2.1,31.3-5.7
			c6.4-3.2,10-10.4,10-23.6c0-14-3.6-27.9-10.9-41.5c-7.2-13.6-18.1-24.7-32.8-33.2c-7.4-4.5-15.5-7.7-24.5-9.8h-57.3V82.7z"/>
	</g>
	<g>
		<path class="st1" d="M281.9,125.5c8.9,9.6,14,23.4,15.5,41.1c0.2,3-3,5.5-6.2,5.5h-91.3c-3.2,0-6.6-2.8-6.2-5.9
			c2.1-17.5,7.5-31.1,16.2-40.4c9.2-10,21.3-15.1,35.3-14.9C260.4,110.8,272.7,115.7,281.9,125.5 M204.2,87.2
			c-13,5.1-23.6,12.3-32.4,21.7c-8.7,9.4-15.5,20.6-20,34c-4.5,13.4-7,27.9-7,43.4c0,33.2,9.4,59.2,28.1,78.3
			c18.5,19.2,44.5,28.7,78.5,28.7c14,0,26.4-1.7,37.3-5.1c14.5-17.9,25.3-39,31.1-61.9c-2.1,0.6-3.8,1.7-5.3,3
			c-2.8,2.5-11.1,10.4-15.3,14c-4.5,3.8-9.1,7.5-14.3,10.6c-5.1,3.4-10.6,6-16.4,7.7c-5.5,1.5-11.9,2.4-18.5,2.4
			c-10.2,0-19.6-2.5-28.1-7.7c-8.5-5.1-15.3-12.6-20.2-22.3c-4.7-9.2-7.2-19.4-7.7-30.9c-0.2-3.8,2.8-6.2,6.2-6.2h102.4
			c8.5,0,16-0.8,21.9-2.3c0.2-2.5,0.2-5.3,0.2-8.1c0-37-12.6-71.1-33.4-98.6c-12.6-5.5-27-8.3-43.6-8.3
			C231.4,79.5,217.2,82,204.2,87.2"/>
	</g>
</g>
</svg>
